<?xml version="1.0" encoding="UTF-8" standalone="no"?>
<!-- Created with Inkscape (http://www.inkscape.org/) -->

<svg
   xmlns:dc="http://purl.org/dc/elements/1.1/"
   xmlns:cc="http://creativecommons.org/ns#"
   xmlns:rdf="http://www.w3.org/1999/02/22-rdf-syntax-ns#"
   xmlns:svg="http://www.w3.org/2000/svg"
   xmlns="http://www.w3.org/2000/svg"
   xmlns:sodipodi="http://sodipodi.sourceforge.net/DTD/sodipodi-0.dtd"
   xmlns:inkscape="http://www.inkscape.org/namespaces/inkscape"
   width="38.406189mm"
   height="41.747417mm"
   viewBox="0 0 136.08492 147.92392"
   id="svg2"
   version="1.1"
   inkscape:version="0.91 r13725"
   sodipodi:docname="logo.svg"
   inkscape:export-filename="D:\Documents\Development\portforward\src\main\resources\image\logo.png"
   inkscape:export-xdpi="13.15"
   inkscape:export-ydpi="13.15">
  <defs
     id="defs4" />
  <sodipodi:namedview
     id="base"
     pagecolor="#ffffff"
     bordercolor="#666666"
     borderopacity="1.0"
     inkscape:pageopacity="0.0"
     inkscape:pageshadow="2"
     inkscape:zoom="1.979899"
     inkscape:cx="72.927678"
     inkscape:cy="114.08643"
     inkscape:document-units="px"
     inkscape:current-layer="layer1"
     showgrid="false"
     fit-margin-top="0"
     fit-margin-left="0"
     fit-margin-right="0"
     fit-margin-bottom="0"
     inkscape:window-width="1920"
     inkscape:window-height="1017"
     inkscape:window-x="-8"
     inkscape:window-y="-8"
     inkscape:window-maximized="1" />
  <metadata
     id="metadata7">
    <rdf:RDF>
      <cc:Work
         rdf:about="">
        <dc:format>image/svg+xml</dc:format>
        <dc:type
           rdf:resource="http://purl.org/dc/dcmitype/StillImage" />
        <dc:title></dc:title>
      </cc:Work>
    </rdf:RDF>
  </metadata>
  <g
     inkscape:label="Layer 1"
     inkscape:groupmode="layer"
     id="layer1"
     transform="translate(-77.629373,-618.36218)">
    <path
       style="fill:#ff9955"
       d="m 133.21429,761.57574 c -8.26754,-4.32995 -9.02551,-4.97806 -9.31336,-7.96356 -0.40967,-4.24887 0.95197,-4.21252 9.83832,0.26257 l 6.97504,3.51257 0,-10.01257 0,-10.01257 -3,0 c -2,0 -3,0.5 -3,1.5 0,0.83333 -0.88889,1.5 -2,1.5 -1.17522,0 -2,0.66667 -2,1.61658 0,1.18512 -0.66724,1.48902 -2.5,1.13867 -1.94242,-0.37132 -2.5,-0.0628 -2.5,1.38342 0,1.89615 -1.57813,2.34418 -4.41822,1.25434 -1.01232,-0.38847 -1.58178,-1.82851 -1.58178,-4 0,-2.72634 0.39296,-3.39301 2,-3.39301 1.35506,0 2,-0.66667 2,-2.06739 0,-1.61231 0.44024,-1.92766 2,-1.43261 1.55667,0.49407 2,0.1797 2,-1.41822 0,-1.51306 -1.64373,-2.88786 -6.25,-5.22745 -7.46294,-3.79053 -11.75,-4.40844 -11.75,-1.69357 0,2.24324 -1.81526,2.35737 -4.75411,0.29892 -1.7709,-1.24039 -2.16132,-2.40871 -2.00502,-6 0.19753,-4.53855 0.61691,-5.18086 2.30913,-3.53661 1.36037,1.32182 6.45,0.1069 6.45,-1.53965 0,-1.70009 3.16248,-1.82094 4.8,-0.18342 1.81339,1.81339 1.4688,5.59467 -0.55,6.03541 -1.10226,0.24064 1.30753,1.93949 6.51047,4.58975 5.69703,2.90193 8.98842,4.02498 10.60624,3.61894 2.30824,-0.57933 5.63329,1.57125 5.63329,3.64351 0,1.0739 5.14346,3.50403 9.25,4.37035 1.82368,0.38473 2.75,1.21588 2.75,2.46747 0,1.395 0.52172,1.7509 2,1.36432 1.71944,-0.44965 2,-0.0307 2,2.98663 0,3.26094 -1.97005,5.47828 -3.84025,4.32231 -0.36286,-0.22428 -0.50194,1.57426 -0.30906,3.99676 0.19288,2.4225 0.53937,4.40455 0.76998,4.40455 0.23061,0 4.45131,-2.025 9.37933,-4.5 4.92802,-2.475 9.44754,-4.5 10.04338,-4.5 0.61984,0 0.94927,1.39049 0.76998,3.25 -0.2931,3.03988 -1.02453,3.61918 -11.31336,8.96036 -7.23689,3.75685 -12.19736,5.71146 -14.5,5.71356 -2.23673,0.002 -6.74841,-1.69809 -12.5,-4.71036 z m 12.56642,-2.21356 c 0.51347,0 0.93358,1.125 0.93358,2.5 0,1.375 0.16889,2.5 0.37532,2.5 1.51176,0 22.62468,-11.1818 22.62468,-11.98246 0,-1.44809 0.0724,-1.47299 -10.06326,3.46015 -5.05996,2.46273 -9.5907,4.23618 -10.06833,3.94099 -0.47763,-0.29519 -0.86841,-2.34048 -0.86841,-4.54508 0,-3.5533 -0.22707,-3.93631 -2,-3.3736 -1.76963,0.56166 -2,0.1797 -2,-3.31598 0,-3.10975 0.42574,-4.06209 2,-4.47377 3.08183,-0.80592 2.36691,-2.58692 -1,-2.49119 l -3,0.0853 0,9.34782 c 0,6.82562 -0.33727,9.34072 -1.25,9.32151 -0.6875,-0.0145 -4.5125,-1.75817 -8.5,-3.8749 -3.9875,-2.11673 -7.25,-3.33122 -7.25,-2.69888 0,0.63234 4.1625,3.22144 9.25,5.75355 9.2337,4.59572 9.25055,4.59964 9.56642,2.22519 0.17403,-1.30826 0.73653,-2.37865 1.25,-2.37865 z m -1.06642,-3.55902 c 0,-0.85746 0.45,-1.2809 1,-0.94098 0.55,0.33992 1,1.04148 1,1.55902 0,0.51754 -0.45,0.94098 -1,0.94098 -0.55,0 -1,-0.70156 -1,-1.55902 z m 4,-8.5 c 0,-0.51754 -0.45,-0.94098 -1,-0.94098 -0.55,0 -1,0.70156 -1,1.55902 0,0.85746 0.45,1.2809 1,0.94098 0.55,-0.33992 1,-1.04148 1,-1.55902 z m 4,-1.89301 c 0,-0.4587 -0.62407,-1.07347 -1.38682,-1.36616 -0.97094,-0.37259 -1.23672,0.0418 -0.88631,1.38176 0.47129,1.80223 2.27313,1.78986 2.27313,-0.0156 z m -29,-2.98895 c 0,-0.51754 -0.45,-1.2191 -1,-1.55902 -0.55,-0.33992 -1,0.0835 -1,0.94098 0,0.85746 0.45,1.55902 1,1.55902 0.55,0 1,-0.42344 1,-0.94098 z m 3.18333,-4.27569 c -0.71756,-0.71756 -1.18333,-0.7766 -1.18333,-0.15 0,1.33478 1.18261,2.51739 1.85,1.85 0.28416,-0.28416 -0.0158,-1.04916 -0.66667,-1.7 z m 9.5875,-4.97083 c -0.21771,-0.65313 -0.93051,-1.36573 -1.58401,-1.58356 -0.73075,-0.24358 -0.95424,0.21359 -0.58051,1.1875 0.69752,1.81771 2.76447,2.19592 2.16452,0.39606 z m -29.5875,-10.02917 c -0.71756,-0.71756 -1.18333,-0.7766 -1.18333,-0.15 0,1.33478 1.18261,2.51739 1.85,1.85 0.28416,-0.28416 -0.0158,-1.04916 -0.66667,-1.7 z m 5.62937,-4.30396 c -0.89962,-0.89962 -2.99764,1.41237 -2.30244,2.53724 0.57364,0.92816 1.00636,0.81162 1.71978,-0.4632 0.52431,-0.93688 0.7865,-1.8702 0.58266,-2.07404 z m 3.1873,-0.97937 c 0,-0.825 -0.45,-1.5 -1,-1.5 -0.55,0 -1,0.675 -1,1.5 0,0.825 0.45,1.5 1,1.5 0.55,0 1,-0.675 1,-1.5 z m -0.75,34.75462 c -2.68885,-1.33819 -3.25,-2.19047 -3.25,-4.93605 0,-3.84539 1.19459,-4.14715 6.46607,-1.63336 2.99557,1.42849 3.53393,2.19019 3.53393,5 0,3.82448 -1.51234,4.17611 -6.75,1.56941 z m 4.75,-2.0941 c 0,-0.72693 -4.27123,-3.16052 -5.54706,-3.16052 -1.33747,0 -0.14642,1.8422 1.79706,2.77951 2.8129,1.35661 3.75,1.45182 3.75,0.38101 z m 58,-3.1402 c 0,-2.46451 0.68467,-3.32897 3.96016,-5 5.55926,-2.83612 7.03984,-2.63435 7.03984,0.95936 0,2.46451 -0.68467,3.32897 -3.96016,5 -5.55926,2.83612 -7.03984,2.63435 -7.03984,-0.95936 z m 8.76239,-3.8075 c 0.29814,-0.8944 -0.63727,-0.76326 -3.16972,0.44438 -1.97597,0.94227 -3.59267,2.3463 -3.59267,3.12006 0,1.11566 0.65606,1.02368 3.16972,-0.44437 1.74335,-1.01817 3.36005,-2.4222 3.59267,-3.12007 z m -96.262393,-3.49071 -12,-6.22211 -0.292457,-8.37469 -0.292457,-8.3747 2.542457,0.48602 c 3.242026,0.61976 3.262121,-0.71898 0.04246,-2.82859 -1.690469,-1.10764 -2.5,-2.55314 -2.5,-4.46403 0,-3.55538 1.155846,-4.28576 4.425064,-2.7962 1.805123,0.82247 2.574936,1.95021 2.574936,3.77216 0,1.51593 0.833423,3.11942 2,3.84796 1.27595,0.79684 2,2.33202 2,4.24054 0,2.32486 -0.445703,2.99153 -2,2.99153 -1.615045,0 -2,0.66667 -2,3.46361 0,3.38238 0.240403,3.5876 10.25,8.75 9.53163,4.9159 10.25,5.49568 10.25,8.27269 0,1.88303 -0.55417,3.07343 -1.5,3.22211 -0.825,0.1297 -6.9,-2.56414 -13.5,-5.9863 z m 12.500003,2.28701 c 0,-0.54499 -4.500003,-3.24909 -10.000003,-6.00912 -5.5,-2.76003 -10.05625,-5.46413 -10.125,-6.00912 -0.06875,-0.54498 -0.18125,-2.75338 -0.25,-4.90755 -0.207973,-6.51649 -1.625,-5.87021 -1.625,0.74114 l 0,6.1578 10.75,5.45735 c 12.409193,6.29965 11.250003,5.82881 11.250003,4.5695 z M 85.89762,718.14551 c -0.717562,-0.71756 -1.183333,-0.7766 -1.183333,-0.15 0,1.33478 1.18261,2.51739 1.85,1.85 0.284167,-0.28416 -0.01583,-1.04916 -0.666667,-1.7 z m -3.183333,-6.22431 c 0,-0.24254 -0.45,-0.7191 -1,-1.05902 -0.55,-0.33992 -1,-0.14148 -1,0.44098 0,0.58246 0.45,1.05902 1,1.05902 0.55,0 1,-0.19844 1,-0.44098 z m 108.000993,29.19098 c 9.2e-4,-3.03562 0.52862,-3.53483 8,-7.56807 l 7.99901,-4.31808 0,-9.3605 c 0,-9.83235 1.25042,-12.98694 4.87138,-12.2896 1.40512,0.2706 1.62862,2.09579 1.62862,13.29995 l 0,12.9863 -10,5.21181 c -5.5,2.8665 -10.5625,5.229 -11.25,5.25 -0.75162,0.023 -1.24961,-1.25761 -1.24901,-3.21181 z m 11.48431,-3.97286 8.5147,-4.22285 -0.19575,-11.52715 -0.19574,-11.52714 -0.55426,10.5 -0.55425,10.5 -7.96869,4.15606 c -4.38278,2.28584 -8.13278,4.64834 -8.33333,5.25 -0.55001,1.65004 0.0779,1.43851 9.28732,-3.12892 z m -51.9853,0.56608 c -1.95087,-1.55403 -1.93859,-1.57815 0.5,-0.98185 1.375,0.33623 3.53905,0.61747 4.80901,0.62498 1.28217,0.008 2.03417,0.45836 1.69099,1.01365 -0.92862,1.50253 -4.73799,1.14511 -7,-0.65678 z m -4.00333,-2.33784 c 0.33809,-0.54704 1.60215,-1.51252 2.80902,-2.14551 2.17907,-1.1429 2.18108,-1.13599 0.28932,0.99462 -1.90852,2.14948 -4.25394,3.0207 -3.09834,1.15089 z m 9.31583,0.31151 c 0.72187,-0.28887 1.58437,-0.25335 1.91666,0.0789 0.33229,0.3323 -0.25833,0.56864 -1.3125,0.52522 -1.16494,-0.048 -1.4019,-0.28494 -0.60416,-0.60416 z m 31.78727,-0.0504 c -1.37423,-1.37423 -0.51619,-6.2408 1.26875,-7.19607 1.02768,-0.55 2.09326,-0.77526 2.36794,-0.50058 0.27469,0.27469 0.26953,-0.70319 -0.0114,-2.17306 -0.37383,-1.95556 0.0661,-3.10769 1.63978,-4.29474 2.12678,-1.60423 2.11449,-1.62213 -1.10707,-1.61212 -2.01827,0.006 -3.16754,-0.45063 -3.0207,-1.20092 0.29881,-1.52679 -5.64403,2.46421 -9.68171,6.50189 -1.68042,1.68042 -3.05531,3.9741 -3.05531,5.09705 0,1.75188 -2.56363,4.11211 -4.46648,4.11211 -1.4924,0 -2.17354,-4.50283 -0.87724,-5.79914 0.74916,-0.74915 1.12036,-1.75324 0.8249,-2.23131 -0.76874,-1.24384 3.07515,-3.07703 4.94638,-2.35898 1.01585,0.38983 1.57244,0.0512 1.57244,-0.95679 0,-0.88755 1.94007,-2.41837 4.5,-3.55076 l 4.5,-1.99056 0,-13.05623 c -5e-5,-9.48823 -0.32799,-13.05628 -1.20005,-13.05628 -0.93333,0 -0.93333,-0.26667 0,-1.2 1.53148,-1.53148 1.66957,-18.8 0.15034,-18.8 -0.57731,0 -2.37731,0.68656 -4,1.52568 -1.62269,0.83912 -2.95034,1.13627 -2.95034,0.66032 0,-0.47595 6.54225,-4.2 14.53834,-8.27568 14.05609,-7.16451 14.58683,-7.34593 16,-5.46919 1.36881,1.81782 1.46166,1.70666 1.46166,-1.75 0,-2.03012 -0.26193,-3.69113 -0.58207,-3.69113 -0.32014,0 -9.66747,4.5 -20.77185,10 -11.10438,5.5 -20.74245,10 -21.41793,10 -0.67549,0 -1.22815,0.41968 -1.22815,0.93261 0,0.51294 -0.9,1.21826 -2,1.56739 -1.1,0.34913 -2.03553,1.39195 -2.07895,2.31739 -0.0444,0.94701 -0.29127,1.1607 -0.56461,0.48879 -0.79806,-1.96176 -3.35644,-0.27318 -3.35644,2.21531 0,1.69556 -1.19341,2.97453 -4.5,4.82262 -2.475,1.3833 -4.5,2.10592 -4.5,1.60582 0,-0.50011 1.8,-1.82757 4,-2.94993 2.2,-1.12236 4,-2.71298 4,-3.53472 0,-1.15505 -1.36028,-0.8074 -5.99476,1.53207 -5.11565,2.58237 -6.28882,2.8425 -8,1.77385 -2.67377,-1.6698 -2.55798,-3.08141 0.18144,-2.21195 2.47815,0.78654 20.02575,-7.3461 19.48094,-9.02865 -0.37173,-1.14803 9.16724,-5.76432 10.74473,-5.19982 0.59821,0.21407 3.33765,-0.76024 6.08765,-2.16514 3.25435,-1.66256 4.41535,-2.6816 3.32542,-2.9188 -0.92102,-0.20044 -3.55213,0.59341 -5.84691,1.76412 -2.29477,1.17071 -4.32972,1.97117 -4.52209,1.77879 -0.19237,-0.19237 1.65124,-1.41129 4.09691,-2.70872 2.44567,-1.29742 4.44667,-2.67419 4.44667,-3.05948 0,-0.98535 -4.71546,-3.02155 -6.99736,-3.02155 -1.04679,0 -2.26312,-0.61794 -2.70295,-1.37319 -1.04403,-1.79275 -10.6694,-6.62681 -13.19502,-6.62681 -1.079,0 -2.64027,-0.67845 -3.46949,-1.50767 -0.82922,-0.82922 -1.75435,-1.10854 -2.05584,-0.62071 -1.09204,1.76696 -4.62952,1.93534 -6.26658,0.29829 -1.20492,-1.20492 -1.76402,-1.31615 -2.06574,-0.41098 -0.5049,1.51471 -5.44285,1.64525 -6.90555,0.18255 -0.74469,-0.7447 -2.72644,-0.2405 -6.68436,1.70065 -6.31636,3.09783 -5.84341,4.29957 1.49563,3.80035 2.69375,-0.18324 4.66263,0.0472 4.37528,0.51218 -0.28735,0.46494 -3.98539,0.84534 -8.21787,0.84534 -6.65799,0 -8.61314,0.44396 -14.50279,3.29319 -3.74405,1.81126 -6.80736,3.5676 -6.80736,3.90299 0,0.33539 1.84699,1.50435 4.10444,2.59769 3.40215,1.64775 3.85926,2.19137 2.67151,3.17711 -1.86813,1.55041 -10.39699,-2.50263 -10.03966,-4.77098 0.15358,-0.97486 -2.80661,-3.07542 -8.455449,-6 -4.780464,-2.475 -8.860875,-5.05973 -9.067581,-5.74385 -0.206705,-0.68411 0.848159,-1.7092 2.344143,-2.27798 1.495984,-0.56877 2.486974,-1.26712 2.2022,-1.5519 -0.284774,-0.28477 -2.575181,0.4818 -5.089793,1.70349 -4.138323,2.01055 -4.410657,2.35181 -2.870918,3.59753 1.5433,1.2486 1.492381,1.31883 -0.548895,0.7571 l -2.25,-0.61917 0,14.00837 c 0,8.26023 0.410337,14.26198 1,14.62641 0.55,0.33992 1,-0.36101 1,-1.55761 0,-1.68332 0.452582,-2.0573 2,-1.65264 2.588894,0.67701 2.588894,-0.90422 0,-2.28975 -1.761471,-0.94271 -2,-2.09382 -2,-9.65176 0,-9.30181 0.128417,-9.44296 6.25,-6.86985 1.245832,0.52367 1.75,0.27262 1.75,-0.8714 0,-1.84809 2.236813,-2.0858 5.117909,-0.54389 1.209878,0.64751 1.868301,1.87274 1.684259,3.13418 -0.232423,1.59303 1.065744,2.90565 5.624275,5.68689 3.25954,1.98871 6.10017,4.1502 6.3125,4.80333 0.21233,0.65312 -0.54207,2.11562 -1.67644,3.25 -2.52042,2.52041 -2.59157,3.65496 -0.3125,4.9824 1.66666,0.97075 1.66666,1.02073 0,1.04969 -1.54173,0.0268 -1.75,1.16104 -1.75,9.53041 0,8.65559 1.07465,12.18268 2.36132,7.75 0.28465,-0.98065 0.41635,-0.65093 0.29958,0.75 -0.11461,1.375 -0.7602,2.3875 -1.43464,2.25 -0.67445,-0.1375 -1.22626,0.65 -1.22626,1.75 0,1.14476 0.66666,2 1.55901,2 0.85746,0 1.27637,0.45734 0.93091,1.01631 -0.34547,0.55897 -1.04703,0.75742 -1.55902,0.44098 -0.512,-0.31643 -0.9309,0.99409 -0.9309,2.91226 0,3.75388 -2.11604,6.6499 -4.82143,6.59865 -1.53712,-0.0291 -1.531101,-0.14375 0.0714,-1.36025 1.57333,-1.19432 1.75,-3.54822 1.75,-23.31632 l 0,-21.98788 -4.000003,-1.80375 c -3.308171,-1.49178 -4,-2.29635 -4,-4.65187 0,-1.56647 -0.45,-2.84813 -1,-2.84813 -0.55,0 -1,0.72746 -1,1.61658 0,1.63516 -2.213956,1.60151 -6.25,-0.095 -1.554848,-0.65356 -1.75,-0.0611 -1.75,5.31238 0,3.32639 0.45,6.32609 1,6.66601 0.55,0.33992 1,-0.30852 1,-1.44098 0,-1.39235 0.647558,-2.05902 2,-2.05902 1.111111,0 2,-0.66667 2,-1.5 0,-1.57004 1.738311,-1.92139 4.418213,-0.89301 1.078464,0.41384 1.581787,1.88285 1.581787,4.61663 0,3.51731 -0.245573,3.94542 -2,3.48663 -1.513271,-0.39573 -2,-0.0307 -2,1.5 0,1.50029 -0.494489,1.8937 -1.913749,1.52256 -1.32655,-0.34691 -2.075325,0.11741 -2.440345,1.51324 -0.346431,1.32476 -1.060203,1.80895 -2.086251,1.41521 -1.087379,-0.41726 -1.559655,-0.002 -1.559655,1.37012 0,2.43758 -2.089969,2.53038 -4.923129,0.21862 -2.04973,-1.67251 -2.132125,-2.43633 -1.860784,-17.25 l 0.283913,-15.5 6,-3.26263 c 4.12541,-2.24329 6.859187,-3.11028 8.75,-2.775 2.228893,0.39523 2.75,0.11699 2.75,-1.46832 0,-2.1025 3.832987,-3.65585 6.497763,-2.63328 0.9857,0.37825 1.50224,-0.0288 1.50224,-1.18384 0,-1.99428 9.62276,-7.1867 13.27215,-7.16162 3.18389,0.0219 5.12124,1.51715 4.4002,3.39613 -0.49618,1.29304 -0.14242,1.49366 1.78212,1.01063 5.05358,-1.26837 8.95562,2.29945 4.79553,4.38478 -0.9625,0.48247 -6.58752,0.83581 -12.50004,0.78519 -11.59432,-0.0993 -11.38502,-0.20715 -10.8163,5.57508 0.19895,2.02275 -2.99615,3.18063 -6.706134,2.43025 -1.500141,-0.30342 -3.74645,0.0198 -4.991798,0.7183 -2.154105,1.20818 -1.884383,1.45519 5.543742,5.07681 l 7.80801,3.80684 19.63686,-9.8031 19.63685,-9.80311 4.84069,2.26726 c 3.31253,1.55151 7.04995,2.34135 11.83885,2.50194 3.84899,0.12907 7.55191,0.57691 8.22872,0.9952 1.94116,1.1997 1.43774,3.44195 -0.94237,4.19737 l -2.17293,0.68966 2.42293,1.33393 c 1.3326,0.73366 3.20134,1.10119 4.15274,0.81674 0.9514,-0.28445 2.49759,-0.0875 3.43597,0.43763 1.09527,0.61295 2.4956,0.59512 3.91102,-0.0498 1.47665,-0.6728 2.79776,-0.6728 4,0 1.1884,0.66507 2.52818,0.67061 3.964,0.0164 1.65728,-0.7551 3.1695,-0.47772 6.41094,1.17594 2.33313,1.19027 4.49845,1.90774 4.81182,1.59437 0.31337,-0.31336 0.0448,-0.56975 -0.5969,-0.56975 -1.57829,0 -1.49675,-2.98623 0.0833,-3.05214 0.6875,-0.0287 -4.53241,-2.97957 -11.59979,-6.55754 -10.16073,-5.14402 -13.44444,-6.37479 -15.69135,-5.88129 -1.56286,0.34327 -3.66707,0.18231 -4.67603,-0.35766 -1.21304,-0.6492 -2.45553,-0.63423 -3.66781,0.0442 -2.27992,1.27592 -6.61499,-0.46405 -6.61499,-2.65508 0,-1.80395 3.95398,-2.96162 7.17782,-2.10158 1.2772,0.34072 0.18468,-0.52727 -2.42782,-1.92887 -5.21851,-2.79973 -6.00863,-4.97945 -2.40086,-6.62326 2.05303,-0.93542 5.55085,0.54833 27.75,11.77144 l 25.40086,12.84178 0.31959,3.90468 c 0.17577,2.14757 0.0622,4.93008 -0.25233,6.18335 -0.75519,3.00894 -4.50079,4.22336 -6.13459,1.989 -1.10976,-1.51769 -1.99559,-1.28328 -9.8262,2.60031 l -8.60647,4.26837 0,23.02715 0,23.02714 2.75,-0.0354 c 4.0359,-0.052 7.25,-2.17984 7.25,-4.79974 0,-2.7258 1.74581,-4.66482 4.2,-4.66482 2.72134,0 2.54457,6.62891 -0.2,7.5 -1.38695,0.4402 -2,1.51303 -2,3.5 0,1.98697 -0.61305,3.0598 -2,3.5 -1.38695,0.4402 -2,1.51303 -2,3.5 0,1.98697 -0.61305,3.0598 -2,3.5 -1.36636,0.43367 -2,1.51303 -2,3.40687 0,1.95576 -0.70683,3.09415 -2.40023,3.86572 -1.32013,0.60149 -2.67013,0.82372 -3,0.49385 z m 3.40023,-4.32551 c 0,-0.51754 -0.45,-0.94098 -1,-0.94098 -0.55,0 -1,0.70156 -1,1.55902 0,0.85746 0.45,1.2809 1,0.94098 0.55,-0.33992 1,-1.04148 1,-1.55902 z m -17,-1.44098 c 0,-0.825 -0.45,-1.5 -1,-1.5 -0.55,0 -1,0.675 -1,1.5 0,0.825 0.45,1.5 1,1.5 0.55,0 1,-0.675 1,-1.5 z m 21,-5.55902 c 0,-0.51754 -0.45,-0.94098 -1,-0.94098 -0.55,0 -1,0.70156 -1,1.55902 0,0.85746 0.45,1.2809 1,0.94098 0.55,-0.33992 1,-1.04148 1,-1.55902 z m -2,-5.94098 c 0,-0.55 -0.70156,-1 -1.55902,-1 -0.85746,0 -1.2809,0.45 -0.94098,1 0.33992,0.55 1.04148,1 1.55902,1 0.51754,0 0.94098,-0.45 0.94098,-1 z m 6,-1.05902 c 0,-0.51754 -0.45,-0.94098 -1,-0.94098 -0.55,0 -1,0.70156 -1,1.55902 0,0.85746 0.45,1.2809 1,0.94098 0.55,-0.33992 1,-1.04148 1,-1.55902 z m 4,-7 c 0,-0.51754 -0.45,-0.94098 -1,-0.94098 -0.55,0 -1,0.70156 -1,1.55902 0,0.85746 0.45,1.2809 1,0.94098 0.55,-0.33992 1,-1.04148 1,-1.55902 z M 89.89762,674.14551 c -0.717562,-0.71756 -1.183333,-0.7766 -1.183333,-0.15 0,1.33478 1.18261,2.51739 1.85,1.85 0.284167,-0.28416 -0.01583,-1.04916 -0.666667,-1.7 z m 16.92917,-2.07083 c -0.81667,-0.81667 -1.1125,-0.70476 -1.1125,0.42083 0,0.84334 0.32812,1.86146 0.72916,2.2625 0.40104,0.40104 0.90167,0.21167 1.1125,-0.42083 0.21084,-0.6325 -0.11729,-1.65063 -0.72916,-2.2625 z m 64.8875,-0.2125 c 1.375,-0.78602 2.05,-1.42913 1.5,-1.42913 -0.55,0 -2.125,0.64311 -3.5,1.42913 -1.375,0.78602 -2.05,1.42913 -1.5,1.42913 0.55,0 2.125,-0.64311 3.5,-1.42913 z m -77.000003,0.059 c 0,-0.24254 -0.45,-0.7191 -1,-1.05902 -0.55,-0.33992 -1,-0.14148 -1,0.44098 0,0.58246 0.45,1.05902 1,1.05902 0.55,0 1,-0.19844 1,-0.44098 z m 16.000003,-6.05902 c -1.375,-0.78602 -2.95,-1.42913 -3.5,-1.42913 -0.55,0 0.125,0.64311 1.5,1.42913 1.375,0.78602 2.95,1.42913 3.5,1.42913 0.55,0 -0.125,-0.64311 -1.5,-1.42913 z m 76.93675,-5.07622 c -1.08387,-1.30597 -1.062,-1.75076 0.12755,-2.59433 1.13861,-0.80743 1.05664,-0.89513 -0.39609,-0.42378 -1.00748,0.32688 -2.08972,0.59433 -2.40499,0.59433 -0.31526,0 0.24129,0.9 1.23678,2 2.13498,2.35913 3.33725,2.71375 1.43675,0.42378 z m 7.29681,-1.54878 c 2.09896,-1.12333 2.09849,-1.12699 -0.31574,-2.46457 -3.27895,-1.81666 -3.41782,-1.77239 -3.41782,1.08957 0,2.78253 0.65372,3.02328 3.73356,1.375 z m 12.49199,-6.18254 c 2.04648,-1.13715 0.32756,-2.18463 -21.36299,-13.01824 -12.9737,-6.47986 -23.76139,-11.60873 -23.97265,-11.39747 -0.21125,0.21125 1.86459,1.43733 4.61299,2.72461 5.36334,2.51205 5.66984,2.91093 3.7471,4.87646 -1.01155,1.03405 -0.56362,1.15179 2.34807,0.61721 3.13354,-0.57532 5.42512,0.25467 17.75,6.42886 13.17132,6.59822 16.2332,9.06963 12.90193,10.41383 -0.84676,0.34168 -0.76612,0.51842 0.25,0.5479 0.825,0.0239 2.5015,-0.51299 3.72555,-1.19316 z m -64.52555,-5.89246 c -0.93334,-0.93333 -1.46667,-0.93333 -2.4,0 -0.93334,0.93333 -0.66667,1.2 1.2,1.2 1.86666,0 2.13333,-0.26667 1.2,-1.2 z m 8,0 c -0.93334,-0.93333 -1.46667,-0.93333 -2.4,0 -0.93334,0.93333 -0.66667,1.2 1.2,1.2 1.86666,0 2.13333,-0.26667 1.2,-1.2 z m 8.52916,0.59583 c -0.33229,-0.33229 -1.19479,-0.36782 -1.91666,-0.0789 -0.79774,0.31923 -0.56078,0.55619 0.60416,0.60417 1.05417,0.0434 1.64479,-0.19293 1.3125,-0.52522 z m -11.75719,-2.35735 c 1.26095,-0.79744 1.22512,-1.02562 -0.25,-1.59167 -0.94708,-0.36343 -2.49686,-0.36343 -3.44395,0 -1.47511,0.56605 -1.51095,0.79423 -0.25,1.59167 0.80959,0.51199 1.69698,0.93089 1.97198,0.93089 0.275,0 1.16239,-0.4189 1.97197,-0.93089 z m -31.38277,-7.66663 c -0.2381,-0.62047 0.0719,-1.63298 0.68894,-2.25 1.74376,-1.74376 -0.36532,-1.24767 -4.98831,1.17334 l -4.21016,2.20481 4.47122,0 c 2.90856,0 4.31992,-0.39428 4.03831,-1.12815 z m 38.4108,96.07312 c 0,-0.74212 10.72673,-5.45773 12.27851,-5.39779 0.67182,0.0259 -1.25351,1.35472 -4.27851,2.95282 -5.28635,2.79277 -8,3.62212 -8,2.44497 z m 20,-12.33798 c 0,-0.49116 0.73865,-1.17646 1.64144,-1.52289 1.37248,-0.52667 1.43434,-0.38034 0.37756,0.89301 -1.44013,1.73524 -2.019,1.91584 -2.019,0.62988 z m -30,-3.07181 c 0,-2.81395 3.30842,-6.06009 4.72877,-4.63974 0.30662,0.30662 -0.18192,0.84122 -1.08565,1.18801 -0.90372,0.34679 -1.64312,1.50894 -1.64312,2.58256 0,1.07361 0.45,1.67391 1,1.33399 0.55,-0.33992 1,-0.18962 1,0.33399 0,0.81104 -2.24062,2.16601 -3.58179,2.16601 -0.23002,0 -0.41821,-1.33417 -0.41821,-2.96482 z m 34.40618,-0.18698 c -0.42763,-0.69193 -0.2785,-0.88733 0.37089,-0.48598 0.59735,0.36918 1.79188,-0.33642 2.65451,-1.568 1.25348,-1.78959 1.56842,-1.90041 1.56842,-0.55191 0,2.19335 -3.59013,4.22989 -4.59382,2.60589 z m -0.40618,-3.74121 c 0,-0.49116 0.73865,-1.17646 1.64144,-1.52289 1.37248,-0.52667 1.43434,-0.38034 0.37756,0.89301 -1.44013,1.73524 -2.019,1.91584 -2.019,0.62988 z M 79.464287,704.28208 c -1.435364,-0.83602 -1.75,-2.45432 -1.75,-9.00097 0,-8.60004 0.926696,-10.0989 4.921859,-7.96075 1.386813,0.7422 2.078141,2.09848 2.078141,4.077 0,1.63065 0.45,2.96482 1,2.96482 0.55,0 1,-0.9 1,-2 0,-2.22871 1.180637,-2.50888 4.065741,-0.96482 1.3596,0.72764 1.934259,2.09922 1.934259,4.61664 0,3.08911 -0.274933,3.50955 -2,3.05843 -1.483493,-0.38794 -2,-0.0307 -2,1.38337 0,1.23971 -0.699406,1.90638 -2,1.90638 -1.111111,0 -2,0.66667 -2,1.5 0,1.71235 -2.665034,1.9255 -5.25,0.4199 z m 3.25,-3.82628 c 0,-1.41405 0.516507,-1.77131 2,-1.38337 1.186401,0.31025 2,0.0307 2,-0.68724 0,-0.66564 -0.9,-1.44561 -2,-1.73326 -1.404462,-0.36728 -2,-1.36402 -2,-3.34736 0,-1.5534 -0.45,-3.10247 -1,-3.44239 -0.627843,-0.38803 -1,1.82295 -1,5.94098 0,3.70601 0.434975,6.55902 1,6.55902 0.55,0 1,-0.85787 1,-1.90638 z m 8,-5.0346 c 0,-0.51754 -0.45,-1.2191 -1,-1.55902 -0.55,-0.33992 -1,0.0835 -1,0.94098 0,0.85746 0.45,1.55902 1,1.55902 0.55,0 1,-0.42344 1,-0.94098 z m 116.666673,4.27431 c -0.36667,-0.36666 -0.66667,-3.95629 -0.66667,-7.97694 0,-6.65925 0.21873,-7.4536 2.45602,-8.91953 1.35082,-0.88509 2.92582,-1.31891 3.5,-0.96404 0.57419,0.35487 1.04398,3.96814 1.04398,8.02949 0,6.49709 -0.26703,7.57131 -2.22251,8.94099 -2.46452,1.72621 -3.13046,1.8704 -4.11082,0.89003 z m 3.06313,-12.06103 c -0.21648,-2.07476 -0.39722,-0.6223 -0.40166,3.2277 -0.004,3.85 0.17268,5.54754 0.39359,3.7723 0.22091,-1.77523 0.22454,-4.92523 0.008,-7 z m -70.3028,10.24917 c -1.05985,-0.80182 -1.477,-1.46528 -0.927,-1.47435 1.48594,-0.0245 4.02573,1.76048 3.39804,2.38817 -0.29923,0.29923 -1.41119,-0.11199 -2.47104,-0.91382 z m -28.26911,-1.52147 c 0,-1.375 0.22697,-1.9375 0.50439,-1.25 0.27741,0.6875 0.27741,1.8125 0,2.5 -0.27742,0.6875 -0.50439,0.125 -0.50439,-1.25 z m 82.84211,-8.46482 c 0,-2.44136 0.59077,-3.78098 2,-4.53518 1.15752,-0.61949 2,-2.09382 2,-3.5 0,-1.40618 0.84248,-2.88051 2,-3.5 1.16264,-0.62223 2,-2.09382 2,-3.51486 0,-1.85477 0.98836,-2.94872 4.09695,-4.5346 2.25333,-1.14956 4.72833,-1.84783 5.5,-1.55171 1.6704,0.64099 1.91638,7.77349 0.36787,10.66691 -1.22515,2.28921 -4.7841,2.5688 -5.60099,0.44 -0.82084,-2.13907 -2.36383,-0.82176 -2.36383,2.01809 0,1.38235 -0.85082,2.86115 -2,3.47617 -1.15752,0.61949 -2,2.09382 -2,3.5 0,2.27459 -2.44016,4.5 -4.93426,4.5 -0.58616,0 -1.06574,-1.55917 -1.06574,-3.46482 z m 4,-1.0942 c 0,-0.85746 -0.45,-1.2809 -1,-0.94098 -0.55,0.33992 -1,1.04148 -1,1.55902 0,0.51754 0.45,0.94098 1,0.94098 0.55,0 1,-0.70156 1,-1.55902 z m 4,-7.55901 c 0,-0.55 -0.45,-0.72189 -1,-0.38197 -0.55,0.33992 -1,1.06803 -1,1.61803 0,0.55 0.45,0.72189 1,0.38197 0.55,-0.33992 1,-1.06803 1,-1.61803 z m 7.60174,-9.61357 c -0.69936,-0.69935 -5.60174,2.50461 -5.60174,3.66103 0,0.48583 0.89453,0.6494 1.98785,0.3635 1.32744,-0.34714 2.24105,0.0992 2.75,1.34362 0.60208,1.47208 0.82947,1.16068 1.08268,-1.48269 0.17629,-1.84037 0.0778,-3.58883 -0.21879,-3.88546 z m -82.10174,12.6053 c -7.15,-3.7632 -13.7875,-6.66641 -14.75,-6.45157 -1.02229,0.22819 -1.75,-0.1942 -1.75,-1.01575 0,-0.77351 0.70544,-1.40638 1.56765,-1.40638 2.20899,0 29.43235,13.93838 29.43235,15.06938 0,1.39168 -0.44752,1.20046 -14.5,-6.19568 z m 9.32409,-4.75587 c -9.18819,-5.00473 -9.91189,-6.14722 -1.09906,-1.73506 3.97377,1.98948 7.94077,3.61723 8.81554,3.61723 0.87478,0 4.93601,-1.54572 9.02497,-3.43493 4.08895,-1.88921 7.43446,-3.2783 7.43446,-3.08687 0,0.70294 -15.19156,8.51782 -16.32679,8.39887 -0.64527,-0.0676 -4.17737,-1.75927 -7.84912,-3.75924 z m 26.17591,3.39902 c 0,-0.26574 2.25,-1.62332 5,-3.01685 2.75,-1.39353 5,-2.16578 5,-1.71611 0,0.44967 -2.03704,1.80725 -4.52675,3.01684 -4.70384,2.2853 -5.47325,2.52655 -5.47325,1.71612 z m -56,-2.54853 c 0,-1.19972 2.56129,-1.85749 3.93263,-1.00995 0.83892,0.51847 0.3971,0.9366 -1.34068,1.2688 -1.42558,0.27252 -2.59195,0.15603 -2.59195,-0.25885 z m 14.44113,-4.401 c -3.09428,-2.28378 -0.61263,-3.96335 3.37727,-2.28572 2.45393,1.03179 2.89903,1.60097 1.97478,2.52521 -1.56931,1.56931 -2.98729,1.50586 -5.35205,-0.23949 z m 34.05887,-4.26816 c 1.65,-0.26187 3.63568,-0.99881 4.41262,-1.63765 1.11716,-0.91858 1.31015,-0.84778 0.9227,0.33849 -0.3135,0.95983 -1.90254,1.54957 -4.41262,1.63764 -2.96314,0.10398 -3.18885,0.0212 -0.9227,-0.33848 z m -37.05887,-1.85433 c -1.83031,-1.46637 -1.7984,-1.48719 0.55887,-0.36454 3.06103,1.45781 3.62834,1.91971 2.35779,1.91971 -0.53654,0 -1.84904,-0.69983 -2.91666,-1.55517 z m 37.22046,-12.06313 c -1.56113,-0.84602 -2.61609,-1.76054 -2.34437,-2.03226 0.27173,-0.27172 2.22401,0.4186 4.33841,1.53406 2.1144,1.11546 3.16937,2.02998 2.34437,2.03227 -0.825,0.002 -2.77729,-0.68805 -4.33841,-1.53407 z m -34.41159,-22.6022 c -1.2375,-0.59682 -2.25,-1.58792 -2.25,-2.20244 0,-1.68106 22.56316,-12.57706 26.04426,-12.57706 3.75978,0 12.95574,4.5497 12.95574,6.40986 0,1.54594 -2.09402,2.57514 -5.33179,2.62055 -1.95344,0.0274 -1.99486,0.13137 -0.41821,1.04969 4.17966,2.43443 -0.75722,7.32436 -5.06636,5.01818 -1.51534,-0.81098 -2.72473,-0.80887 -4.51734,0.008 -1.67136,0.76152 -3.01749,0.79667 -4.24312,0.11077 -1.19563,-0.6691 -2.52567,-0.67174 -3.98266,-0.008 -1.4687,0.66919 -2.82187,0.65723 -4.11791,-0.0364 -1.19432,-0.63918 -2.48178,-0.68424 -3.3765,-0.11819 -1.80818,1.14398 -2.85917,1.09325 -5.69611,-0.27496 z m 11.75,-2.61283 c -2.63306,-0.87769 -0.39316,-3.48459 5.4843,-6.3829 l 6.4843,-3.19755 4.58856,2.22929 c 2.52371,1.22611 4.35251,1.84736 4.06401,1.38055 -0.2885,-0.46681 -2.38314,-1.68685 -4.65474,-2.71119 l -4.13018,-1.86246 -10.92818,5.4388 -10.92818,5.43879 5.51005,0 c 3.03053,0 5.06006,-0.15 4.51006,-0.33333 z m 14.8048,-2.51662 2.30481,-1.27908 -2.55481,-1.16405 c -1.94323,-0.88539 -3.16638,-0.88539 -5.10961,0 l -2.5548,1.16405 2.3048,1.27908 c 1.26764,0.70349 2.52981,1.27908 2.80481,1.27908 0.275,0 1.53716,-0.57559 2.8048,-1.27908 z"
       id="path4147"
       inkscape:connector-curvature="0" />
  </g>
</svg>
